<?xml version="1.0" encoding="UTF-8"?><svg id="a" xmlns="http://www.w3.org/2000/svg" viewBox="0 0 42.52 42.52"><defs><style>.b{fill:#9aaeba;}.c{fill:#023452;}</style></defs><path class="b" d="M9.11,29.87H3.04c-1.67,0-3.04,1.36-3.04,3.04v5.06c0,1.67,1.36,3.04,3.04,3.04l5.06-1.01c1.67,0,3.04-1.36,3.04-3.04l1.01-4.05c0-1.67-1.36-3.04-3.04-3.04Z"/><path class="b" d="M24.3,21.77h-6.07c-1.67,0-3.04,1.36-3.04,3.04v13.16c0,1.67,1.36,3.04,3.04,3.04l5.06-1.01c1.67,0,3.04-1.36,3.04-3.04l1.01-12.15c0-1.67-1.36-3.04-3.04-3.04Z"/><path class="b" d="M39.48,13.67h-6.07c-1.67,0-3.04,1.36-3.04,3.04v21.26c0,1.67,1.36,3.04,3.04,3.04l5.06-1.01c1.67,0,3.04-1.36,3.04-3.04l1.01-20.25c0-1.67-1.36-3.04-3.04-3.04Z"/><path class="c" d="M24.3,41h-6.07c-.56,0-1.01-.45-1.01-1.01s.45-1.01,1.01-1.01h6.07c.56,0,1.01-.45,1.01-1.01v-13.16c0-.56.45-1.01,1.01-1.01s1.01.45,1.01,1.01v13.16c0,1.67-1.36,3.04-3.04,3.04Z"/><path class="c" d="M9.11,41H3.04c-.56,0-1.01-.45-1.01-1.01s.45-1.01,1.01-1.01h6.07c.56,0,1.01-.45,1.01-1.01v-5.06c0-.56.45-1.01,1.01-1.01s1.01.45,1.01,1.01v5.06c0,1.67-1.36,3.04-3.04,3.04Z"/><path class="c" d="M39.48,41h-6.07c-.56,0-1.01-.45-1.01-1.01s.45-1.01,1.01-1.01h6.07c.56,0,1.01-.45,1.01-1.01v-21.26c0-.56.45-1.01,1.01-1.01s1.01.45,1.01,1.01v21.26c0,1.67-1.36,3.04-3.04,3.04Z"/><path class="c" d="M3.04,23.79c-.4,0-.78-.24-.94-.64-.21-.52.04-1.11.56-1.32.15-.06,15-6.13,23.82-19.85.3-.47,2,.62,1.7,1.09C19,17.36,4.05,23.47,3.41,23.72c-.12.05-.25.07-.38.07Z"/><path class="c" d="M28.74,11.54c-.48,0-.91-.35-1-.84l-1.24-7-7,1.24c-.55.09-1.08-.27-1.17-.82-.1-.55.27-1.08.82-1.17l8-1.41c.55-.1,1.08.27,1.17.82l1.41,8c.1.55-.27,1.08-.82,1.17-.06.01-.12.02-.18.02Z"/></svg>