<?xml version="1.0" encoding="UTF-8"?><svg id="a" xmlns="http://www.w3.org/2000/svg" viewBox="0 0 42.52 42.52"><defs><style>.b{fill:#9aaeba;}.c{fill:#023452;}</style></defs><path class="b" d="M22.17,2.7l3,5.99c5.59,1.68,9.67,6.87,9.67,13,0,7.49-6.09,13.58-13.58,13.58s-13.58-6.09-13.58-13.58c0-6.13,4.08-11.33,9.67-13l3-5.99C10.28,3.17,2.24,11.51,2.24,21.69s8.53,19.02,19.02,19.02,19.02-8.53,19.02-19.02S32.23,3.17,22.17,2.7Z"/><path class="c" d="M8.58,22.6H1.34c-.5,0-.91-.4-.91-.91s.4-.91.91-.91h7.24c.5,0,.91.4.91.91s-.4.91-.91.91Z"/><path class="c" d="M21.26,42.52c-.5,0-.91-.4-.91-.91v-7.24c0-.5.4-.91.91-.91s.91.4.91.91v7.24c0,.5-.4.91-.91.91Z"/><path class="c" d="M41.18,22.6h-7.24c-.5,0-.91-.4-.91-.91s.4-.91.91-.91h7.24c.5,0,.91.4.91.91s-.4.91-.91.91Z"/><path class="c" d="M26.69,12.64c-.1,0-.19-.02-.29-.05l-5.15-1.72-5.15,1.72c-.35.12-.73.01-.97-.27-.24-.28-.29-.67-.13-1L20.45.46c.31-.61,1.31-.61,1.62,0l5.43,10.87c.16.33.11.72-.13,1-.17.2-.43.31-.68.31ZM21.26,9.02c.1,0,.19.02.29.05l3.36,1.12-3.65-7.29-3.65,7.29,3.36-1.12c.09-.03.19-.05.29-.05Z"/></svg>