<?xml version="1.0" encoding="UTF-8"?><svg id="a" xmlns="http://www.w3.org/2000/svg" viewBox="0 0 42.52 42.52"><defs><style>.b{fill:#023452;}.c{fill:#fbcba6;}</style></defs><path class="c" d="M31.89,4.83h-.97l-3.87.97-2.96-.97h-5.74l-2.89.97-3.87-.97h-.97c-2.67,0-4.83,2.16-4.83,4.83v28.02c0,2.67,2.16,4.83,4.83,4.83h23.77c1.28,0,2.32-1.04,2.32-2.32V9.66c0-2.67-2.16-4.83-4.83-4.83Z"/><path class="b" d="M30.92,6.76h-7.51c-.38,0-.73-.22-.88-.57s-.09-.76.17-1.04c.32-.35.49-.81.49-1.28,0-1.07-.87-1.93-1.93-1.93s-1.93.87-1.93,1.93c0,.48.18.93.49,1.28.26.28.32.69.17,1.04s-.5.57-.88.57h-7.51c-.53,0-.97-.43-.97-.97s.43-.97.97-.97h5.92c-.08-.31-.12-.64-.12-.97C17.39,1.73,19.13,0,21.26,0s3.87,1.73,3.87,3.87c0,.33-.04.65-.12.97h5.92c.53,0,.97.43.97.97s-.43.97-.97.97Z"/><path class="b" d="M28.99,17.39h-15.46c-.53,0-.97-.43-.97-.97s.43-.97.97-.97h15.46c.53,0,.97.43.97.97s-.43.97-.97.97Z"/><path class="b" d="M28.02,28.99h-14.5c-.53,0-.97-.43-.97-.97s.43-.97.97-.97h14.5c.53,0,.97.43.97.97s-.43.97-.97.97Z"/><path class="b" d="M25.13,34.79h-11.6c-.53,0-.97-.43-.97-.97s.43-.97.97-.97h11.6c.53,0,.97.43.97.97s-.43.97-.97.97Z"/><path class="b" d="M23.19,23.19h-9.66c-.53,0-.97-.43-.97-.97s.43-.97.97-.97h9.66c.53,0,.97.43.97.97s-.43.97-.97.97Z"/></svg>