<?xml version="1.0" encoding="UTF-8"?><svg id="a" xmlns="http://www.w3.org/2000/svg" viewBox="0 0 200 200"><g id="b"><path d="M53,89.2c.3-6.8,1-12.7,1.8-15.3,6-18.6,8.5-26.6,19-34.3-1.3,1-2.4,2-3.4,3.3l7.3-6.8,5.8-2.5,5.4-.8h6.1l8.1,2.2c3.9,1.7,10.4,5.5,18.4,16.5.7.7,1.4,1.4,2.1,2.1,13.4,14.3,26,42.1,25.7,56.4-.3,12.9-4.2,21.6-9.1,27.9-10,12.6-27.3,15.2-41.5,16.3l-10.1-.4-9.3-2.8-9-5.7c-3.5-3-6.4-6.5-8.7-10.1-4.1-6.5-6.2-13.5-7.1-17.2-3.2-9.3-3.8-19.5-1.3-28.6l-.2-.2ZM88.9,32.8h-.6,1-.4Z" style="fill:#d96248; fill-rule:evenodd;"/></g><g id="c"><path d="M73.3,139c-6.6.9-13.8,1.6-20.1,1.8-7.5.3-13.9-.2-17.2-1.9l-.4-.2-.3-.3-.4-.7-.2-.8v-.8c.3-.7.9-1.6,2.5-2.4,1.5-.7,4.3-1.3,9.4-1.2,16.4.2,18.2-2.5,30.9-3.7-6.4-3.5-12.5-7.9-17.9-14.4-8.9-10.8-10.8-18.6-9.8-24.4.8-4.5,3.4-7.8,6.3-10.5,2.6-2.4,5.5-4.2,7.3-5.8,2.1-2,5.3-6.3,7.3-11.5,2-5.1,3-11.2.7-16.8-2-4.9-6.4-9.4-14.5-12.8-.8-.4-1.2-1.3-.9-2.2.3-.8,1.3-1.3,2.1-.9,3,1.1,20.4,5.7,29.2,18.5,9,13.1,3.7,21.6,2.8,23.2-4.3,7.2-5.5,12.1-4.3,16.1.7,2.3,2,4.2,3.9,6.1-1-2-1.8-4.2-2.1-6.5-1.5-11.3,6.4-18.9,15.4-26.6,4.4-3.7,8.9-9.7,12.1-15.4,0-.2-.2-.3-.2-.5-2.2-4.4-3-8.1-1.9-10.7.8-1.9,2.5-3.5,5.5-4.2,1.7-.4,2.9,0,3.6.7.9.9,1.3,2.7.8,5.2s-2,5.9-3.9,9.5c4.9,8.7,14.4,20.1,21.7,31,5.4,8.1,9.6,16,10.1,22.4.8,11.7-5.7,19.8-14.2,25.4-6.9,4.6-15.1,7.4-21.1,9.1,9.3-.6,19.1-1.3,27.7-1.4,9.8,0,18.2.7,23,3.3,2.7,1.4,4.2,2.6,4.8,3.4.2.2.3.4.4.6l.2.8v.6l-.2.6-.3.5-.3.4c-.3.2-.6.5-1.1.7-1.3.5-3.7.7-6.5.6-5.9-.2-13.8-1.3-14.9-1.2-6.8.2-12.4,1.5-19.5,1.6,14.4,5.7,30.5,16.1,33.1,17.7.7.5,1,1.4.6,2.2s-1.3,1.1-2.1.8c-3.6-1.4-3.9-.6-8.5-3.3-2.4-1.4-4.8-2.7-7.2-4-18.1-9.4-24.8-11-33.7-15.2-.7-.2-1.3-.5-2-.7,3.1,5.1,6.5,13.2,11.3,27.7.2.7,0,1.6-.7,2s-1.5.3-2.1-.3c-11.9-13-14.3-26.2-16.4-33h-2.4c-1.8,5.8-4.2,15.5-7.4,21-2.6,4.4-6.6,9.1-10,11.9-1.6,1.3-3.1,2.2-4.2,2.6-1,.3-1.9.3-2.6,0l-.6-.4-.5-.6c-.2-.3-.4-.8-.5-1.3-.2-1.3.1-3.6,1.4-7,6-16,8-18.2,15.2-24.9-7.8,2.9-13,7.3-19.1,12.1-8,6.2-17.5,13.1-36,18.5-.5.1-.9.2-1.1.2l-.8-.2-.4-.2-.4-.4-.2-.5v-1.1l.2-.5c.2-.3.5-.6,1-1.1,4-3.5,22.4-15.2,34-21.9,2.7-1.5,4.8-2.8,6.6-3.9v-.5ZM95,137.4c-9.5,9-11.1,9.3-17.6,26.7-.7,1.8-1.1,3.1-1.2,4.2v.8c.4-.1,1-.4,1.4-.7,3.3-2.2,8-7.4,10.8-12.2s5-13.1,6.7-18.8h-.1ZM79.3,139.3c-2.7,1.4-5.7,3.4-10.9,6.4-8.3,4.8-20.2,12.2-27.6,17.2,16.4-5.9,24.3-13.1,32.1-19.1,2.1-1.6,4.2-3.1,6.4-4.5h0ZM106,142.2l7.8,17.6c-3.1-8.6-5.5-13.9-7.8-17.6ZM108.8,136.5c.1,0,.2.1.3.2,19.3,5.8,27.1,1.9,38.9,1.6,1.1,0,9.4,1.1,15.4,1.2,1.5,0,2.8,0,3.8-.1-.7-.5-1.6-1.2-2.7-1.7-4.5-2.4-12.3-3-21.5-2.9-10.7,0-23.1,1.2-34.3,1.8l.1-.1ZM116.9,48.2c-3.3,5.5-7.7,11-11.8,14.6-4.1,3.5-8.1,7-10.8,11-2.6,3.7-4,7.8-3.4,12.7.5,4,2.8,7.7,5.2,10.6,2.5,3.2,5.1,5.5,5.9,6.6.5.7.4,1.6-.2,2.2s-1.6.6-2.2,0c-3.8-3.2-7.4-5.8-10.4-8.5-3.2-2.9-5.6-5.8-6.6-9.4-1.4-4.7-.4-10.5,4.6-18.8.8-1.3,5-8.4-2.7-19.6-3.7-5.3-8.9-9.1-13.9-11.8,1.7,1.9,2.9,4,3.7,6,2.6,6.5,1.6,13.4-.7,19.3-2.3,5.8-5.8,10.5-8.1,12.7-1.7,1.6-4.6,3.4-7.3,5.8-2.4,2.2-4.6,4.9-5.2,8.6-.9,5.2,1.2,12,9.1,21.7,6.4,7.8,14.1,12.5,21.8,16.1.6,0,1.2,0,1.8-.2-1.2-1.1-2.3-1.9-3.3-2.6-1.8-1.3-3.1-2.3-4.1-4.2-2.3-4.5-3.4-7.9-3.1-11.5s1.9-7.5,5.3-13l.6-.7.8-.4h.9c0-.1.9,0,.9,0l.8.5.5.7.3.8v.9h0c-1.9,8,1.3,13.7,5.5,18,2.7,2.8,5.8,5,8.4,6.8,0,0,0-.2.1-.2,3.2-5.5,6.8-9,9.9-12.6,4.2-4.8,7.3-9.6,6.1-19.7-4.5-3.6-9.6-6.5-12.2-9.7-1.8-2.2-2.4-3.8-2.5-4.8v-1l.2-.5.3-.5c.7-.8,2.1-1.2,4-.6,4.1,1.3,11.7,7.3,13.3,15.5.1,0,.2.2.4.3,5.2,4.3,9.2,9.7,7.8,17.2-1.2,6.6-6.3,11.7-12.2,15.5-3.4,2.2-7,3.9-10.3,5.3.9,1,1.3,2,1.3,2.9,0,.6-.2,1.2-.7,1.7.2,0,.5-.2.7-.3,1.8-.6,17.4-3.1,29.2-10.9,7.5-4.9,13.4-12,12.7-22.4-.4-5.9-4.4-13.2-9.5-20.8-6.9-10.3-15.7-21-20.9-29.5v.2ZM117,41.3c1.2-2.5,2.1-4.8,2.5-6.6.2-.8.1-1.7.1-2h-.4c-1.3.3-2.3.8-2.9,1.6s-.7,1.9-.5,3.1c.2,1.2.6,2.5,1.2,3.9ZM82.9,134.2c1.1-.4,2.4-.7,3.9-.9-1.1-.5-2.3-1-3.4-1.6-18.3.7-18.1,4.2-36.9,4-3.1,0-5.3.2-6.7.5-.3,0-.5.2-.7.2,3.2,1,8.3,1.2,14,.9,9.7-.3,21.3-1.9,29.9-3.3l-.1.2ZM100.7,128.7c-.5.2-.9.3-1.4.5-.2.3-.4.5-.6.8h.3c.9-.2,1.6,0,2.3.5,0,0,.2,0,.2-.1.1,0,.3-.2.4-.3-.1-.2-.4-.6-.7-.9-.2-.2-.3-.3-.5-.5ZM118.9,94.1c.3,9.1-2.9,13.9-7.2,18.8-2.9,3.3-6.3,6.6-9.3,11.6,3.2-1.3,6.8-3,10.1-5.2,5.1-3.3,9.6-7.6,10.7-13.3.9-5-1.2-8.8-4.4-11.9h.1ZM113.6,85.7c-1.4-2.6-3.4-4.7-5.3-6.3-1.4-1.1-2.7-1.9-3.8-2.3h-.2c.3.6.8,1.3,1.5,2.2,1.8,2.2,4.7,4.2,7.9,6.5l-.1-.1ZM89.8,127.5c.8-.1,1.5-.2,2.2-.3.9,0,1.7,0,2.4.2.8-.2,1.7-.6,2.8-.9,0,0,0-.1.1-.2-6.7-4.7-16.6-11.8-16-24-1.6,3-2.5,5.5-2.7,7.8-.2,3.1.8,6,2.7,9.8.7,1.4,1.7,2.1,3,3,1.5,1.1,3.3,2.3,5.4,4.6h.1ZM83.5,98.6h0ZM93.5,132.3h.4c0-.3.1-.5.2-.8l-1.2-.4c-.2,0-.3-.2-.5-.3.3.5.7,1,1.1,1.5Z" style="fill-rule:evenodd;"/></g></svg>