<?xml version="1.0" encoding="UTF-8"?><svg id="a" xmlns="http://www.w3.org/2000/svg" viewBox="0 0 200 200"><path d="M30.2,152.3c-1.9-5.2,0-7.9,53.9-82.8,7.3-10.2,12.1-16.8,19.5-17.2,13.6-.6,23,9.6,54.8,55.9,19.9,29,22.5,43.4,20.3,49.6-9.7,27.3-135.8,28.2-148.5-5.6v.1Z" style="fill:#9bf2d2; fill-rule:evenodd;"/><g id="b"><path d="M55.7,106.8c-.4.3-1,.8-1.4,1.3-2.2,2.4-4.7,6.2-5,6.9-2.6,7.2-4.7,10.4-6.9,13.5-2.1,3-4.4,6-7.5,12.6-4.4,9.8-5.3,9.2-11.2,18.2-.5.7-1.5.9-2.2.5-.7-.5-.9-1.5-.5-2.2,5.7-8.8,6.6-8.2,11-17.8,3.1-6.9,5.5-10,7.8-13.1,2.1-3,4.1-6,6.5-12.8.2-.7,2.1-3.6,4.1-6.2,1.4-1.8,2.9-3.4,4-4,.4-.2.8-.4,1.1-.4h1l.5.2.4.3.3.3.2.4c.7,1.3,1.3,2.5,1.9,3.3.2.3.4.5.6.7.1.1.2.3.4.3h0s.2-.1.3-.2c.3-.3.7-.7,1-1.3,7.2-11.3,15.2-34.2,22.6-42.8,2.3-2.7,4.7-4,6.9-3.9,1.6.1,3.2,1,4.7,2.8,1.9,2.4,3.2,4.4,4.3,5.9.9,1.1,1.6,1.8,2.8,2,1.2.2,2.8-.1,5.1-.9,5.7-1.8,10.4,1.3,16,9.1,7.5,10.6,17,30,35.2,55.8,1.1,1.6,13.3,22.4,13.5,22.8.4.8,0,1.7-.8,2.1-.8.4-1.7,0-2.1-.8-.2-.4-12.1-20.7-13.2-22.3-18.2-25.7-27.7-45.2-35.2-55.8-1.9-2.7-3.6-4.8-5.4-6.2-2.3-1.9-4.5-2.5-7-1.7-2.9.9-5,1.2-6.5,1-2-.3-3.4-1.3-4.9-3.1-1.2-1.4-2.4-3.4-4.3-5.9-.8-1-1.6-1.6-2.4-1.7-1.4-.1-2.8,1-4.3,2.8-7.4,8.5-15.2,31.3-22.3,42.5-1.7,2.6-3.3,3.2-4.7,3-.8-.2-1.7-.7-2.5-1.7-.7-.8-1.4-2-2.1-3.5h.2Z" style="fill-rule:evenodd;"/><path d="M70.4,100.3c4-3.3,6.2-5.3,7.8-6.6,2.3-1.8,3.5-2.2,6.2-2.2s2.3.3,2.9.8,1,1.2,1.3,2.4c.4,1.9.4,5.6,3.8,12,.4.8.8,1.4,1.1,1.8h0c.3-.5.7-1.3,1-2,1.7-3.7,4.3-9.2,10.5-11,1.2-.3,2.3-.1,3.3.5,1.1.7,2.2,2,3.3,3.6,1.2,1.7,2.4,3.7,3.9,5.4,1.1,1.3,2.4,2.3,4.1,2.8.4-.8,1.2-2.5,1.7-3.9,1.2-3.3,2.4-7,2.7-7.5.9-1.9,2.4-2.5,3.8-2.7.8-.1,1.9-.1,2.2,0,.6-.3,1.4-.2,1.9.3.6.6.6,1.6,0,2.2s-1.2.6-2.3.6c-.8,0-2.1-.2-2.8,1.1-.4.7-2.7,8.4-4.3,11.4-.4.8-.8,1.3-1.1,1.6l-.7.4h-.8c-2.7-.4-4.9-1.9-6.7-3.9-1.6-1.8-2.9-3.9-4.2-5.7-.7-1-1.4-1.9-2-2.5-.3-.3-.7-.5-1.1-.4-3,.9-4.9,2.9-6.3,4.9-1.5,2.3-2.4,4.7-3.2,6.2-.7,1.4-1.6,2.1-2.4,2.3h-1.3l-.5-.3c-.1,0-.3-.2-.5-.3-.6-.5-1.4-1.5-2.3-3.2-3.1-5.7-3.6-9.5-3.9-11.8,0-.7-.3-1.4-.3-1.6h-.9c-1.9,0-2.7.3-4.2,1.5-1.9,1.5-4.7,4.2-10.6,8.8-.5.4-1.3.5-1.8,0-.6-.4-.8-1.1-.7-1.7l.6-2.5c.2-.8,1.1-1.4,1.9-1.1.3,0,.6.3.8.5l.1-.2Z" style="fill-rule:evenodd;"/><path d="M104,71.8c0,.9-.6,1.6-1.4,1.7-.9,0-1.6-.6-1.7-1.4-.2-2.7-1.7-19.2-3.5-33.9-.1-.9.5-1.7,1.4-1.8s1.7.5,1.8,1.4c1.9,14.7,3.3,31.3,3.5,34h-.1Z" style="fill-rule:evenodd;"/><path d="M99,39.4c-.9-.1-1.5-.9-1.4-1.8.1-.9.9-1.5,1.8-1.4.7,0,1.2.2,2.1.8,1.6.9,5.1,3.4,17.4,10.7.6.4.9,1.1.7,1.7-.2.7-.7,1.2-1.4,1.2,0,0-9.3-1-15,4.7-.6.6-1.6.6-2.2,0s-.6-1.6,0-2.2c3.5-3.5,8.3-4.9,11.8-5.4-7.3-4.4-10.4-6.5-12.1-7.5-.9-.6-1.2-.8-1.7-.8Z" style="fill-rule:evenodd;"/></g></svg>