<?xml version="1.0" encoding="UTF-8"?><svg id="a" xmlns="http://www.w3.org/2000/svg" viewBox="0 0 170 170"><path d="M156.85,95.46c-2.47-4.12-5.47-7.33-9.3-10.75-1.42-1.53-2.88-3.11-4.36-4.82-.19-.22-.42-.39-.65-.54-5.32-5.52-7.38-5.8-15.1-13.04-1.97-1.84-3.55-3.49-4.86-4.99-.73-1.01-1.44-2.08-2.19-3.23-.85-5.7-2.13-11.68-3.83-15.41-3.16-6.97-9.49-13.46-16.44-18.92-3.63-2.85-11.95-7.18-18.06-7.81-5.12-.52-12.45-.47-18.69.89-10.84,1.37-17.53,8.09-20.52,13.48-.09.16-.16.31-.24.47-.35.55-.55,1.01-.64,1.32v.04c-.39.9-.68,1.76-.86,2.52l-.33.55-.24.87v1.06s.1.37.1.37c-6.79,1.65-27.23,8.53-36.19,16.45-.52.46-.7,1.21-.45,1.86.26.65.89,1.07,1.59,1.06,5.24-.14,20.29,3.09,45.26.61.25.5.64.92,1.17,1.21,3.8,2.07,5.95,6.3,7.33,10.57,2.35,7.3,2.36,14.98,2.49,15.66.4,2.13-.18,5.42-.51,9.32-.09,1.08-.16,2.2-.21,3.35-.13.45-.15.93-.04,1.4,0,.01,0,.02,0,.04-.26.88-1.32,5.23.45,13.66,1.76,10.24,4,14.31,6.51,18.66,2.13,4.55,5.43,8.85,8.46,11.77,1.07,1.03,2.12,1.87,3.1,2.54.08.09.16.17.25.26,2.38,2.44,5.53,3.47,7.77,3.24.67-.07,1.28-.23,1.82-.48l.88-.52.32-.3s.06-.02.09-.04c2.2-1.32,3.06-2.49,3.35-3.25l.21-.88-.03-.97-.35-1.02-.75-1s-.09-.08-.13-.11c-.06-.07-.11-.15-.18-.22-1.34-1.34-2.32-2.19-3.17-2.85-2.89-3.61-6.71-8.94-6.34-23.89.08-3.31.64-6.82,1.52-10.12.02.12.03.25.05.37-.05.32-.05.65.01.99.35,1.79.62,3.3.85,4.61.08.47.16.94.25,1.42.16.89.3,1.69.46,2.42.34,1.69.7,3.31,1.08,4.7.46,1.68,1,3.07,1.52,4.06,1.43,5.89,4.08,12.34,9.14,17.11,6.67,6.28,11.78,8.64,16.45,10.63,2.93,1.25,5.68,2.33,8.56,4.25.77.51,1.8.3,2.31-.46.51-.77.3-1.8-.46-2.31-.22-.15-.44-.28-.65-.42l.28-.35.3-.66.12-.73-.08-.79-.14-.3c.95.88,2.4,1.02,3.5.27,1.25-.85,1.61-2.54.81-3.82-.55-.88-1.06-1.71-1.55-2.49.59-.02,1.18-.23,1.67-.64,1.18-.97,1.38-2.7.45-3.91-.13-.16-.25-.33-.38-.49.03,0,.06,0,.09.01,1.08,1.02,2.77,1.03,3.86.02.82-.77,1.09-1.92.77-2.93.32-.15.61-.37.86-.64.19-.21.35-.45.47-.7,1.73,1.06,3.16,1.75,4.06,1.93l1.26.05.67-.18.57-.3.48-.41c1.11.67,2.56.5,3.49-.45.16-.17.3-.35.42-.55.03.02.06.04.1.07l.94.5.79.16,1.22-.18,1.01-.67.44-.59.05-.13c.55.38,1.17.8,1.88,1.27.51.35,1.11.49,1.71.46,1.08,1.08,2.84,1.11,3.95.04.11-.1.19-.22.28-.33,1.03.69,2.43.64,3.41-.21,1.18-1.02,1.3-2.8.28-3.98-8.2-9.46-27.31-14.46-30.49-15.37-2.06-.59-5.18-1.14-8.81-1.79-3.56-.96-6.01-1.32-7.76-1.44-4.21-.85-8.58-1.88-12.49-3.23-3.11-1.08-5.91-2.35-8.02-3.95-1.69-1.28-2.92-2.74-3.22-4.57-.7-4.25-.28-6.38.44-7.62.1-.07.2-.15.3-.23,1.12-.62,2.01-1.24,2.7-1.77,10.55-5.48,20.76-6.66,27.08-8.06,3.66-.81,6.23-1.91,7.48-3.35.24-.27.57-.8.88-1.46,3.58,2.79,5.89,4.31,11.27,10.55.19.22.42.4.66.54,8.91,9.52,16.57,16.27,17.99,37.54.1,1.55,1.45,2.73,3,2.63,1.55-.1,2.73-1.45,2.63-3-.95-14.3-4.45-22.55-9.26-29.23ZM13.17,54.12c-1.11-.11-2.12-.21-3.04-.29,1.28-.86,2.68-1.69,4.15-2.5,10.46-5.76,24.58-10.16,28.22-10.81l.47.31.76.18h.47c.5.52,1.2,1.12,2.03,1.79,1.42,1.16,3.26,2.75,4.53,5.32-5.92.7-24.5,3.18-32.94,4.78-2.39.45-4.04.92-4.64,1.22ZM51.56,54.07c-10.36,1.08-19.03,1.17-26.04.91,9.46-1.48,22.02-3.13,26.09-3.6.11.31.27.66.46,1.06.06.39.11.8.14,1.22-.23.11-.45.24-.65.41ZM66.56,42.57c-3.9,0-7.07-3.16-7.07-7.07s3.16-7.07,7.07-7.07,7.07,3.16,7.07,7.07-3.16,7.07-7.07,7.07Z" style="fill:#ebeff1; fill-rule:evenodd;"/><g id="b"><ellipse cx="65.73" cy="36.63" rx="4.58" ry="4.56" style="fill:#ebeff1;"/></g></svg>