<?xml version="1.0" encoding="UTF-8"?><svg id="a" xmlns="http://www.w3.org/2000/svg" viewBox="0 0 225.08 207.39"><g id="b"><path d="M158.81,33.25c-.77,17.87,7,17.01,11.9,20.46,4.55,3.2,8.76,8.39,9.17,13.93.58,7.73.73,21.42-5.72,32.46-7.03,12.04-40.43,37.24-45.76,22.24-4.53-12.76-12.66-.93-19.99.11-6.05.86-18.89-4.81-19.67-10-1.21-8.05,22.33-42.69,36.92-51.17,8.25-4.79,29.74-19.75,33.14-28.04Z" style="fill:rgba(255,255,255,.64); fill-rule:evenodd; stroke:rgba(255,255,255,.31); stroke-linecap:round; stroke-linejoin:round; stroke-width:.14px;"/></g><g id="c"><path d="M158.72,65.78c-2.48-5.17-9.21-5.78-13.34-6.16-6.02-.54-9.57,1.05-16.18,2.66-11.91,2.9-11.26.38-20.65,2.78-14.1,3.62-23.04,11.22-29.16,16.55-5.46,4.76-8.24,7.23-7.88,9.74.84,5.89,18.05,6.27,30.95,6.56,27.92.62,43.6.7,52.12-12.07,3.55-5.33,6.87-14.41,4.16-20.07Z" style="fill:#8df2b9;"/><path d="M91.02,122.14c1.37,6.32-7.54,13.36-28.72,32.67-18.89,17.22-20.3,19.37-27.58,23.87-1.74,1.08-31.19,15.55-28.14,10.95,10.6-16,62.15-59.77,80.61-72.25.82-.56,3.22,1.94,3.84,4.77h0Z" style="fill:#8df2b9;"/></g><g id="d"><path d="M109.64,69.95c61.98-25.42,68.8,17.19,27.9,25.75-17.24,1.72-34.06,3.87-51.5,7.09-3.18,2.5-7.38,1.52-10.85,1.32-8.09,2.04-16.17,4.12-24.18,6.48" style="fill:none; stroke:#ebeff1; stroke-linecap:round; stroke-linejoin:round; stroke-width:1.23px;"/><path d="M74.37,95.44c7.03-8.89,18.82-15.63,28.81-20.51,11.12-10.23,28.16-16.74,38.24-24.74,8.4-6.66,17-15.22,22.24-23.24,11.19-17.1,36.41-13.29,40.91,7.74" style="fill:none; stroke:#ebeff1; stroke-linecap:round; stroke-linejoin:round; stroke-width:1.23px;"/><path d="M153.15,161.03c-2.9,3.05-5.62,2.26-11.33,2.45-7.51.25-13.31,1.75-13.73-4.18,1.72-2.32,6.69,1.32,8.14-1.74.78-4.28-21.52-29.72-7.22-27.12,21.4-1.03,35.52-13.02,48.07-32.78,10.84-23.68,3.42-42.76-8.15-46.7-7.76-2.64-10.59-15.42-5.82-19.01" style="fill:none; stroke:#ebeff1; stroke-linecap:round; stroke-linejoin:round; stroke-width:1.23px;"/><path d="M102.78,75.35c2.79,14.1,39.19,1.46,48.25,8.96" style="fill:none; stroke:#ebeff1; stroke-linecap:round; stroke-linejoin:round; stroke-width:1.23px;"/><path d="M73.99,95.42c6.32,3.47,14.12-2.77,20.54-.19,16.28-4.02,33.5-5.2,49.4-9.95" style="fill:none; stroke:#ebeff1; stroke-linecap:round; stroke-linejoin:round; stroke-width:1.23px;"/><path d="M221.37,49.42c-4.92,3.26-21.33-3.84-25.9.82-15.13,12.84-4.16,27.2-11.47,36.11" style="fill:none; stroke:#ebeff1; stroke-linecap:round; stroke-linejoin:round; stroke-width:1.23px;"/><path d="M3.08,194.46c15.69-19.45,36.78-36.6,54.54-54.79,8.98-8.82,17.79-17.68,26.19-27.13,2.55-3.16,6.29-5.82,1.14-8.56" style="fill:none; stroke:#ebeff1; stroke-linecap:round; stroke-linejoin:round; stroke-width:1.23px;"/><path d="M129.2,130.66c1.1,2.61,5.13,21.94,11.32,25.24,5.37,4.9,8.4,4.91,10.45,2.08" style="fill:none; stroke:#ebeff1; stroke-linecap:round; stroke-linejoin:round; stroke-width:1.23px;"/><path d="M151.3,84.33c-6.57,7.43-17.49,6.56-24.66,11.78" style="fill:none; stroke:#ebeff1; stroke-linecap:round; stroke-linejoin:round; stroke-width:1.23px;"/><path d="M198.42,41.5c3.81,1.18,8.35,3.21,13.73,4.53,4.2,1.04,7.73,1.7,10.87,2.96,5.78-1.62-13.57-11.55-19.04-12.79" style="fill:none; stroke:#ebeff1; stroke-linecap:round; stroke-linejoin:round; stroke-width:1.23px;"/><path d="M94.05,95.41c-4.33,5.02-14.65,2.05-17.82,8.42" style="fill:none; stroke:#ebeff1; stroke-linecap:round; stroke-linejoin:round; stroke-width:1.23px;"/><path d="M4.14,193.9c4.83.69,8.65-5.07,12.52-7.58,16.37-14.52,31.99-29.81,47.82-45.11,1.88-2.79,4.9-2.84,7.04-5.16,1.66-2.31,4.24-2.98,5.99-5.01,3.01-2.7,7.65-9.56,11.52-8.63-3.23,8.12-11.91,14.3-17.18,21.51-2.82,3.95-45.51,48.42-19.99,31.79,14.53-16.41,27.75-33.81,43.17-49.1,7.84-7.05,15.83,2.56,24.22,2.6,1.86.06,1.66-2.11.45-2.94-4.33-3.71-.71-10.05,3.76-5.33,2.46,3.2,7.81,4.73,8.51,8.75" style="fill:none; stroke:#ebeff1; stroke-linecap:round; stroke-linejoin:round; stroke-width:1.23px;"/><path d="M186.64,34.54c-3.45-.85-1.11-7.3,2.61-5.44,2.23,1.05,1.89,3.17,1.45,4.07-.43.91-4,1.58-4.06,1.37Z" style="fill:none; stroke:#ebeff1; stroke-linecap:round; stroke-linejoin:round; stroke-width:1.23px;"/></g></svg>