<?xml version="1.0" encoding="UTF-8"?><svg id="b" xmlns="http://www.w3.org/2000/svg" viewBox="0 0 300 281.54"><g id="c"><path d="M287.68,167.87c6.09.08,6.92,8.52,6.87,13.39-.2,3.95-.43,9.07-3.26,11.88-2.82,2.64-6.62,4.05-10.05,5.73-6.54,3.21-13.3,6.25-20.09,9.06-4.09,1.51-5.49,4.61-7.52,8.32-2.13,3.76-4.41,7.46-6.73,11.11-1.95,3.07-3.95,6.12-5.89,9.12-2.08,3.09-1.17,4.17,2.32,4.31,4.68.28,9.78.17,14.47.15,2.55-.1,5.83.42,5.59,3.67-.23,4.11-4.85,11.26-8.22,14.1-3.93,3.17-9.55,3.45-14.44,3.97-30.09,3.34-62.37,3.04-90.35-9.32-.91-.44-2.34-1.31-2.22-1.85-.02-.43.5-.79,1.38-1.07,17.48-3.61,36.14-8.23,53.15-13.91,2.62-.77,4.62-1.79,6.61-3.93,1.95-1.95,5-4.99,6.88-6.88.52-.54,2.03-2.01.86-1.83-54.94,16.64-111.62,27.62-168.56,33.62-2.37.1-4.85-.06-6.79-1.14-2.21-1.19-3.65-3.36-4.86-5.5-3.41-5.99-6.42-14.75,2.12-16.91,84.09-14.9,169.72-34.7,248.65-66.07h.08Z" style="fill:#1b2121;"/><path d="M182.74,84.07c20.46,19.55,34.9,45.06,41.35,73.09.6,2.75.38,4.97-1.36,7.25-2.05,2.77-4.91,5.16-7.47,7.49-4.23,3.95-7.83,7.24-12.35,10.6-5.66,4.35-11.76,4.7-8.17-4.18,2.92-6.75,8.64-13.74,10.12-21.11,7.51-24.31-16.2-44.44-35.16-57.78-1.15-.83-2.54-1.66-3.86-1.76-1.08-.11-2.18.2-3.32.73-32.54,17.02-86.1,29.66-80.42,73.34.06,1.15.84,4.27-.36,4.26-.78-.06-1.58-.81-2.32-1.32-8.9-6.94-23.18-15.27-22.18-25.8.25-2.06,1.34-4.19,2.41-5.97,19.64-33.29,90.3-93.32,123.03-58.92l.06.06Z" style="fill:#1c2222;"/><path d="M88.8,30.89c8.95,1.42,14.53,3.76,11.28,13.99-1.27,4.77-2.98,10.24-4.51,15.03-.25.98-1,2.75.05,3.32.7.34,2.06-.12,2.94-.4,10.68-3.72,20.82-8.79,30.93-13.92,1.63-.79,3.52-1.95,5.19-2.16,3.88-.21,10.82,5.29,15.12,8.22,2.6,1.9,4.91,3.66,7.11,5.37,1.52,1.3,3.63,2.42,3.16,3.33-.27.52-2.6.87-3.74,1.06-38.37,6.27-71.21,30.32-93.88,61.2-3.39,4.42-6.66,8.95-9.84,13.61-1.41,2.16-2.85,3.77-4.89,1.21-7.62-9.97-6.35-16.1-.18-26.89,1.92-3.57,1.31-4.51-2.29-2.55-6.34,3.35-10.45,6.42-13.19-.07-1.15-2.8-2.37-6.42-2.32-9.35,1.35-11.42,19.79-18.45,29.69-24.13,2.22-1.17,3.86-3.06,4.84-5.4,3.52-8.58,5.95-17.78,9.5-26.42,2.74-7.32,5.05-17.1,14.95-15.08h.09Z" style="fill:#1b2121;"/><path d="M18.61,108.57c21.29,47.94,57.92,85,109.08,100.05-6.95,1.7-31.57,5.96-43.36,8.31-1.64.3-2.24.53-3.56.13-1.3-.4-2.35-.89-3.75-1.49C37.91,198.67,12.41,167.18.92,126.6c-.9-3.74-1.59-8.11.17-11.58,3.09-5.73,12.79-12.5,17.46-6.51l.05.07Z" style="fill:#1b2121;"/><path d="M141.44,15.02c35.83,20.76,105.06,58.73,116.68,99.04-.11,3.74-2.56,7.05-4.44,10.06-1.7,2.48-2.94,4.5-5.99,1.75-5.24-4.33-10.52-10.02-15.64-14.4-31.24-28.46-66.13-52.84-100.5-77.25-1.58-1.25-2.7-2.64-2.93-4.53-.6-6.23,5.89-16.84,12.73-14.7l.07.02Z" style="fill:#1b2121;"/><path d="M147.3,204.44c-26.86-4.09-62.78-15.49-55.04-47.67,2.06-9.07,7.09-18.25,16.46-20.32,34.51-7.9,92.17,66.26,38.69,67.99h-.1ZM105.97,161.32c.2-1.23.58-2.41,1.13-3.54,1.35-3.41,8.14-10.43,2.97-11.69-18.35-2.37-10.67,46.25-5.94,30.93,1.42-5.08,1.22-10.39,1.82-15.61l.02-.09Z" style="fill:#1b5f68;"/><path d="M133.17,256.55c3.54,1.74,7,3.31,10.63,4.8,3.61,1.3,6.92,2.58,10.39,4.03,8.73,3.32,19.41,5.26,28.76,6.97,8.51,1.35-1.68,4.09-4.46,4.87-26.76,6.99-56.73,6.11-81.32-7.28-2.47-1.39-4.81-2.83-7.16-4.47-1.87-1.32-3.71-2.8-4.25-3.77-.14-.23-.21-.46-.23-.7-.04-1.27,2.46-1.76,6.6-2.34,3.22-.44,6.48-.86,9.65-1.34,4.56-.69,9.86-1.46,14.54-2.25,6.46-1.19,10.76-1.83,16.75,1.44l.09.04Z" style="fill:#1f2525;"/><path d="M11.4,177.88c1.18.74,2.37,1.97,3.38,3.06,13.18,14.16,29.81,25.54,46.38,35.65.79.51,2.86,1.64,2.13,2.35-.48.47-2.32.69-4.1,1.03-1.18.21-2.34.44-3.52.67-5.53,1.08-11.72,2.41-16.51,3.1-2.55.44-5.11.1-7.48-.97-5.65-2.48-11.31-6.2-14.68-11.38-1.59-1.64-18.26-39.74-5.67-33.56l.06.04Z" style="fill:#1c2222;"/><path d="M188.35,2.45c5.23,4.61,9.21,9.19,4.15,15.77-2.89,3.69-6.46,7.64-9.47,10.99-2.54,2.31-3.83,1.58-6.55-.35-2.2-1.41-4.24-2.64-6.76-4.22-2.85-1.79-6.7-4.21-8.87-6.18-2.55-2.06-.13-3.26,1.48-4.72,3.53-2.97,7.83-6.55,11.39-9.4,4.57-3.87,9.34-6.48,14.56-1.95l.08.06Z" style="fill:#1c2222;"/><path d="M173.8,159.21c-1.36,2.47-2.5-1.53-2.96-2.99-3.15-10.92-.42-13.4-13.05-16.42-1.52-.44-6.29-1.25-4.58-3.21,1.81-1.41,5.02-1.55,7.33-2.46,8.07-2.33,7.85-5.7,10.15-14.29.48-1.33,1.08-4.18,2.5-4.5,1.99.18,3,10.27,3.93,12.42.88,2.9,1.92,4.48,5.31,5.26,2.81.79,6.07,1.56,8.77,2.53,6.39,2.55-4.81,4.06-6.63,5-9.17,2.55-7.55,10.44-10.72,18.62l-.03.06Z" style="fill:#e4ac59;"/><path d="M105.95,161.41c-.6,5.22-.39,10.54-1.82,15.61-4.73,15.32-12.41-33.3,5.94-30.93,5.16,1.25-1.63,8.29-2.97,11.69-.55,1.12-.93,2.31-1.13,3.54l-.02.09Z" style="fill:#a4bfc3;"/><path d="M287.22,94.19c1.48.38,2.96,1.08,4.3,1.84,6.53,3.72,9.64,8.07,8.08,14.92-.52,2.34-1.69,5.04-2.85,7.33-7.99,15.12-16.75,30.28-25.85,44.7-1.69,2.79-3.76,4.19-6.79,5.61-3.62,1.72-8.27,3.28-11.92,4.6-12.23,4.65-25.49,9.4-38.05,13.38-1.65.48-4.45,1.48-1.81-1.07,18.99-18.07,37.54-41.38,51.6-64.34,3.74-5.71,7.31-11.46,10.96-17.18,2.82-4.49,5.9-11.49,12.25-9.81l.09.02Z" style="fill:#1b2121;"/><path d="M215.76,107.64c8.93,7.51,19.38,16.47,27.17,25.21.68.78,1.4,1.71,1.67,2.65.71,2.6-1.76,4.77-2.96,6.87-1.26,2.12-2.41,3.78-4.14,5.51-1.34,1.36-2.66,3.17-4.02,4.45-1.22,1.09-1.93.62-2.6-.81-4.75-11.61-8.65-24.46-14.69-35.96-1.31-2.55-3.01-5.63-4.18-8.04-2.06-3.98,2.19-1.01,3.67.07l.07.05Z" style="fill:#1f2525;"/></g></svg>