<?xml version="1.0" encoding="UTF-8"?><svg id="a" xmlns="http://www.w3.org/2000/svg" viewBox="0 0 200 200"><path d="M100.5,48.8c-.4,3.7-11.6,50.1,9.1,57.3,4.4,1.5,9.3-.1,19-3.5,22.4-7.8,40-14,47.8-31,5.8-12.6,6.7-32.3-3.3-41.8-13-12.4-45.3-8.4-72.6,19.1" style="fill:#8df2b9; fill-rule:evenodd;"/><path d="M97,116.1c1-2.9,18.6-37.8,5.1-47.4-2.8-2-6.8-1.6-14.5-.7-17.8,2.1-31.8,3.8-40.9,15.9-6.8,9-11.4,24.5-6.1,34,6.9,12.3,31.1,15.1,56.4-1.8" style="fill:#8df2b9; fill-rule:evenodd;"/><g id="b"><path d="M86.5,37.8c-.5-.7-.3-1.7.4-2.2.7-.6,1.8-.4,2.3.3.2.2.4.7.6,1.5.3,1.2.8,3.4,1.3,6.3,2.9,16.1,8.3,54.8,10.8,70.8,5.8,37.5,4.3,37.7,7.6,60.5.1.9-.5,1.8-1.4,1.9-.9.1-1.8-.5-1.9-1.4-3.4-22.8-1.8-23-7.6-60.5-2.5-16-7.8-54.7-10.7-70.7-.6-3.3-1.4-6.3-1.4-6.5Z" style="fill-rule:evenodd;"/><path d="M150.4,30.5c1.9,2.3,11.8,11,29.3,21.1.5.3.9.9.8,1.5s-.4,1.2-.9,1.4c-3.4,1.6-6.9,5.3-10.3,9.4-5.3,6.5-10.3,14.2-13.5,18.1-1.1,1.3-2,2.3-2.8,2.7-.3.2-.6.3-.9.4h-.8.2s-2,.4-4.4.8c-10.7,2.2-37.4,8.4-47.2,13.3-.8.4-1.8,0-2.2-.7s0-1.8.7-2.2c10-5,37.1-11.3,48-13.6,2.4-.5,4.1-.8,4.7-.9,0,0,.4-.3.6-.5.9-.9,2.1-2.4,3.5-4.3,3.4-4.7,8-11.4,12.7-16.9,2.5-2.9,5-5.4,7.5-7.1-16.1-9.6-25.4-17.8-27.7-20.4-4.8,1.5-22.9,8.3-39.2,11.3-6.9,1.3-9.9,3.1-12.4,4.2-2,.9-3.6,1.5-6.1,1.4-.9,0-1.6-.8-1.6-1.7s.8-1.6,1.7-1.6c2.4.1,3.8-.7,5.8-1.7,2.5-1.2,5.8-2.7,11.9-3.9,17.5-3.2,37.1-10.9,39.9-11.5h1.3l.4.2.3.3.3.6h0l.4.3ZM147.1,30.8v-.5l.5-.5c-.4.4-.5.7-.5,1ZM151.4,81.9h0ZM150.2,31.7l-.3.3c.1-.1.2-.2.3-.3Z" style="fill-rule:evenodd;"/><path d="M94.1,72c.6-.6,1.6-.5,2.2,0,.7.6.7,1.7,0,2.4-.2.3-.7.6-1.4.9-1,.4-2.7.8-4.8,1.2-11.7,2.2-38.7,4.7-42.3,5.6-.9.2-3.1,1.9-5.8,4-5.5,4.3-13,10.8-17.4,14.3,2.1.8,3.5,2,5.5,4.3,2.5,2.9,6.1,7.7,13.8,15.9,16.1-5,17-2.6,38.2-8.5,8.3-2.3,8.1-2.5,16.5-4.5.9-.2,1.8.4,2,1.2.2.9-.4,1.8-1.2,2-8.3,1.9-8.1,2.1-16.3,4.4-21.5,6-22,3.5-39.1,8.8-.6.2-1.3,0-1.7-.4-8.3-8.7-12-13.8-14.6-16.8-2.3-2.6-3.6-3.5-7-4.1-.7-.1-1.2-.6-1.4-1.3-.1-.7.1-1.3.7-1.7,2.9-2,13-10.9,20-16.4,3.3-2.6,6-4.3,7.1-4.6,3.6-.9,30.7-3.5,42.5-5.7,2.2-.4,4.3-1.1,4.6-1.1l-.1.1Z" style="fill-rule:evenodd;"/></g></svg>